<svg width="921" height="516" viewBox="0 0 921 516" fill="none" xmlns="http://www.w3.org/2000/svg">
<g clip-path="url(#clip0_2_34)">
<path d="M784.06 514.467H611.844L611.811 513.502L603.588 278.322H792.315L784.06 514.467ZM613.776 512.467H782.128L790.245 280.322H605.658L613.776 512.467Z" fill="#3F3D56"/>
<path d="M652.925 321.897H639.826V483.994H652.925V321.897Z" fill="#3F3D56"/>
<path d="M704.501 321.897H691.402V483.994H704.501V321.897Z" fill="#3F3D56"/>
<path d="M756.077 321.897H742.978V483.994H756.077V321.897Z" fill="#3F3D56"/>
<path d="M901.75 347.382L900.904 346.848L686.99 211.665L705.545 182.303L706.391 182.837L920.304 318.02L901.75 347.382ZM689.749 211.043L901.126 344.622L917.544 318.643L706.168 185.062L689.749 211.043Z" fill="#3F3D56"/>
<path d="M850.102 200.77C843.884 196.834 836.668 194.766 829.309 194.809C821.951 194.852 814.76 197.005 808.588 201.013C802.417 205.021 797.525 210.715 794.493 217.42C791.461 224.125 790.416 231.559 791.482 238.84L801.682 245.286C799.119 239.334 798.528 232.717 799.997 226.405C801.466 220.094 804.917 214.418 809.845 210.209C814.772 206 820.918 203.48 827.382 203.017C833.846 202.553 840.288 204.172 845.766 207.635C851.244 211.097 855.469 216.223 857.823 222.261C860.177 228.299 860.536 234.932 858.847 241.188C857.159 247.445 853.512 252.997 848.44 257.031C843.368 261.065 837.138 263.369 830.662 263.607L840.862 270.053C847.897 267.893 854.164 263.761 858.92 258.146C863.677 252.531 866.723 245.67 867.696 238.376C868.67 231.082 867.531 223.662 864.414 216.996C861.297 210.33 856.333 204.699 850.111 200.77H850.102Z" fill="#3F3D56"/>
<path d="M909 513.087H0V515.087H909V513.087Z" fill="#3F3D56"/>
<path d="M397.037 499.44H382.473L375.541 443.266H397.041L397.037 499.44Z" fill="#FEB8B8"/>
<path d="M354.386 512.962H400.157V495.278H371.825C367.2 495.278 362.764 497.115 359.494 500.385C356.223 503.656 354.386 508.091 354.386 512.717V512.962Z" fill="#2F2E41"/>
<path d="M391.918 412.395L401.964 422.94L447.416 389.213L432.59 373.65L391.918 412.395Z" fill="#FEB8B8"/>
<path d="M412.313 427.771L392.764 407.258L379.961 419.46L411.543 452.599L411.72 452.43C413.378 450.849 414.709 448.958 415.636 446.864C416.563 444.769 417.069 442.513 417.124 440.223C417.179 437.933 416.782 435.655 415.957 433.518C415.132 431.382 413.894 429.429 412.313 427.771Z" fill="#2F2E41"/>
<path d="M290.548 258.497C289.626 257.014 289.041 255.347 288.833 253.613C288.625 251.88 288.8 250.122 289.344 248.463C289.889 246.804 290.791 245.285 291.986 244.012C293.182 242.739 294.642 241.744 296.263 241.097L353.442 95.3696L375.73 108.715L312.212 248.515C313.12 251.311 312.97 254.344 311.791 257.038C310.611 259.732 308.485 261.899 305.814 263.13C303.144 264.36 300.115 264.568 297.301 263.714C294.487 262.86 292.084 261.004 290.548 258.497Z" fill="#FEB8B8"/>
<path d="M507.58 268.942C505.838 268.817 504.144 268.312 502.618 267.462C501.092 266.612 499.772 265.437 498.749 264.021C497.726 262.606 497.026 260.983 496.699 259.267C496.371 257.551 496.424 255.785 496.853 254.092L412.499 122.223L436.39 112.023L512.226 245.546C515.027 246.451 517.397 248.353 518.888 250.891C520.378 253.429 520.885 256.425 520.312 259.312C519.739 262.199 518.126 264.775 515.778 266.551C513.431 268.327 510.514 269.179 507.58 268.946V268.942Z" fill="#FEB8B8"/>
<path d="M354.005 243.905L368.936 465.818L404.618 462.67L411.964 298.948L431.904 369.262L474.932 372.41L457.901 233.41L354.005 243.905Z" fill="#2F2E41"/>
<path d="M438.201 358.768L431.901 369.263L387.828 399.697L419.312 416.489C419.312 416.489 480.181 382.906 474.934 372.411L438.201 358.768Z" fill="#2F2E41"/>
<path d="M322.759 154.121L335.18 119.121C337.943 111.333 342.224 104.171 347.774 98.0483C353.323 91.926 360.032 86.965 367.512 83.4525C384.324 77.259 402.609 76.2581 419.996 80.5796L424.516 81.7016C436.569 84.623 447.862 90.0773 457.644 97.7016C465.298 103.736 472.184 111.376 472.797 119.594C472.8 119.611 472.805 119.628 472.812 119.645C474.932 128.937 475.981 177.212 475.981 177.212H457.281L460.239 242.279L460 241.808C460 241.808 352.144 262.219 352.144 251.724V184.556L349.933 160.236L322.759 154.121Z" fill="#CCCCCC"/>
<path d="M423.432 71.4816C439.939 71.4816 453.321 58.0998 453.321 41.5926C453.321 25.0853 439.939 11.7036 423.432 11.7036C406.925 11.7036 393.543 25.0853 393.543 41.5926C393.543 58.0998 406.925 71.4816 423.432 71.4816Z" fill="#FEB8B8"/>
<path d="M427.909 28.1886L451.117 29.1186C454.037 29.1096 457.225 29.0066 459.449 27.1186C462.799 24.2696 462.238 18.8936 460.444 14.8776C455.444 3.69558 444.291 -0.310418 432.044 0.0185821C419.797 0.347582 406.964 4.49857 400.369 14.8186C393.774 25.1386 391.992 38.1706 394.476 50.1626C397.348 44.0648 401.769 38.8269 407.297 34.9718C412.826 31.1167 419.269 28.7792 425.984 28.1926L427.909 28.1886Z" fill="#2F2E41"/>
</g>
<defs>
<clipPath id="clip0_2_34">
<rect width="920.304" height="515.087" fill="white"/>
</clipPath>
</defs>
</svg>
